<svg xmlns="http://www.w3.org/2000/svg" viewBox="0 0 32 32" width="32" height="32">
  <rect width="32" height="32" rx="7" fill="#F8FAFD"/>
  <g fill="none" stroke-width="1.8" stroke-linecap="round">
    <path d="M5 9.5 v3.5 a4.4 2 0 0 0 8.8 0 V9.5" fill="rgba(180,83,9,0.2)" stroke="#B45309"/>
    <ellipse cx="9.4" cy="9.5" rx="4.4" ry="2" fill="rgba(180,83,9,0.45)" stroke="#B45309"/>
    <path d="M5 17 v3.5 a4.4 2 0 0 0 8.8 0 V17" fill="rgba(100,116,139,0.2)" stroke="#64748B"/>
    <ellipse cx="9.4" cy="17" rx="4.4" ry="2" fill="rgba(100,116,139,0.45)" stroke="#64748B"/>
    <path d="M5 24.5 v3.5 a4.4 2 0 0 0 8.8 0 v-3.5" fill="rgba(161,98,7,0.2)" stroke="#A16207"/>
    <ellipse cx="9.4" cy="24.5" rx="4.4" ry="2" fill="rgba(161,98,7,0.45)" stroke="#A16207"/>
  </g>
  <path d="M19 4.5 h5.4 l2.6 2.6 v7.4 h-8 Z" fill="#FFFFFF" stroke="#0F172A" stroke-opacity="0.55" stroke-width="1.5" stroke-linejoin="round"/>
  <path d="M24.4 4.5 v2.6 h2.6" fill="none" stroke="#0F172A" stroke-opacity="0.55" stroke-width="1.5" stroke-linejoin="round"/>
  <line x1="21" y1="10" x2="25.6" y2="10" stroke="#0F172A" stroke-opacity="0.45" stroke-width="1.2" stroke-linecap="round"/>
  <line x1="21" y1="12.2" x2="23.8" y2="12.2" stroke="#0F172A" stroke-opacity="0.45" stroke-width="1.2" stroke-linecap="round"/>
</svg>
